<svg width="40" height="40" viewBox="0 0 40 40" fill="none" xmlns="http://www.w3.org/2000/svg">
<path d="M35.9548 2.29289L35.2477 1.5858L34.5406 2.29288L20.0003 16.8327L5.45938 2.29287L4.75202 1.58556L4.04494 2.29314L2.29264 4.04668L1.58601 4.75381L2.29292 5.46067L16.8331 19.9997L2.29291 34.5393L1.58552 35.2467L2.29314 35.9538L4.04544 37.7049L4.75252 38.4115L5.45938 37.7047L19.9994 23.1658L34.5406 37.7059L35.248 38.4132L35.9551 37.7056L37.7074 35.9521L38.414 35.2449L37.7071 34.5381L23.1666 19.9988L37.7071 5.45943L38.4142 4.75232L37.7071 4.04519L35.9548 2.29289Z" fill="#735587" stroke="white" stroke-width="2"/>
</svg>
