<svg width="30" height="29" viewBox="0 0 30 29" fill="none" xmlns="http://www.w3.org/2000/svg">
<path d="M10.3361 28.9413C11.4778 28.9413 12.4033 28.0157 12.4033 26.874C12.4033 25.7323 11.4778 24.8068 10.3361 24.8068C9.19438 24.8068 8.26886 25.7323 8.26886 26.874C8.26886 28.0157 9.19438 28.9413 10.3361 28.9413Z" fill="#735587"/>
<path d="M24.8066 28.9413C25.9483 28.9413 26.8738 28.0157 26.8738 26.874C26.8738 25.7323 25.9483 24.8068 24.8066 24.8068C23.6649 24.8068 22.7394 25.7323 22.7394 26.874C22.7394 28.0157 23.6649 28.9413 24.8066 28.9413Z" fill="#735587"/>
<path d="M28.941 5.16825H6.01559L5.16804 0.827096C5.11971 0.590115 4.98982 0.377583 4.80096 0.226496C4.6121 0.0754084 4.37624 -0.00466621 4.13443 0.000210276H0V2.06742H3.28687L7.23525 21.9127C7.28357 22.1497 7.41347 22.3622 7.60233 22.5133C7.79119 22.6644 8.02705 22.7444 8.26886 22.7396H26.8738V20.6724H9.11641L8.26886 16.5379H26.8738C27.1127 16.5438 27.3463 16.4666 27.5347 16.3196C27.7232 16.1726 27.8549 15.9649 27.9074 15.7317L29.9746 6.42925C30.0092 6.27588 30.0084 6.11664 29.9722 5.96364C29.9361 5.81064 29.8654 5.6679 29.7658 5.54631C29.6661 5.42471 29.54 5.32746 29.3971 5.26194C29.2542 5.19643 29.0982 5.16438 28.941 5.16825ZM26.0469 14.4707H7.87609L6.42904 7.23546H27.649L26.0469 14.4707Z" fill="#735587"/>
</svg>
