<svg width="38" height="38" viewBox="0 0 38 38" fill="none" xmlns="http://www.w3.org/2000/svg">
<path d="M36.3688 7.68887L36.3696 7.68811C36.7733 7.28312 37 6.73459 37 6.16274C37 5.74809 36.8808 5.34571 36.6614 5.00141V4.92684L36.3685 4.63394L33.3672 1.63269L33.3671 1.63259C32.9619 1.22754 32.4125 1 31.8396 1C31.2667 1 30.7172 1.22754 30.3121 1.63259L30.3116 1.63303L27.8906 4.05632L27.1842 4.76342L27.891 5.47019L32.5333 10.1125L33.2407 10.8199L33.9478 10.1122L36.3688 7.68887ZM32.5993 11.0441V10.6299L32.3064 10.337L27.6641 5.69471L26.957 4.98755L26.2499 5.69476L10.436 21.511C10.4359 21.511 10.4359 21.5111 10.4359 21.5111C10.1983 21.7486 10.0194 22.0383 9.9134 22.3571C9.91331 22.3574 9.91322 22.3576 9.91313 22.3579L8.04499 27.96L8.0445 27.9615C7.95221 28.2397 7.93911 28.538 8.00665 28.8233C8.0742 29.1085 8.21973 29.3693 8.42698 29.5765C8.63422 29.7838 8.89503 29.9293 9.18023 29.9968C9.46544 30.0644 9.76381 30.0513 10.042 29.959L10.0435 29.9585L15.6426 28.0913C15.6434 28.0911 15.6443 28.0908 15.6451 28.0905C15.9629 27.9856 16.2519 27.8084 16.4895 27.5728L16.4925 27.5698L32.3065 11.7535L32.5993 11.4606V11.0464V11.0441Z" fill="#735587" stroke="white" stroke-width="2"/>
<path d="M1 32.1759C1 33.3645 1.47218 34.5045 2.31267 35.345C3.15316 36.1855 4.2931 36.6576 5.48173 36.6576H31.0144C32.203 36.6576 33.343 36.1855 34.1835 35.345C35.024 34.5045 35.4961 33.3645 35.4961 32.1759V18.249C35.4961 17.676 35.2685 17.1264 34.8633 16.7212C34.4581 16.316 33.9086 16.0884 33.3356 16.0884C32.7625 16.0884 32.213 16.316 31.8078 16.7212C31.4026 17.1264 31.175 17.676 31.175 18.249V32.1759C31.175 32.2185 31.1581 32.2593 31.128 32.2895C31.0978 32.3196 31.057 32.3365 31.0144 32.3365H5.48173C5.43914 32.3365 5.3983 32.3196 5.36818 32.2895C5.33807 32.2593 5.32115 32.2185 5.32115 32.1759V6.64323C5.32115 6.60064 5.33807 6.5598 5.36818 6.52968C5.3983 6.49957 5.43914 6.48265 5.48173 6.48265H20.5692C21.1422 6.48265 21.6918 6.25502 22.097 5.84983C22.5022 5.44465 22.7298 4.89509 22.7298 4.32208C22.7298 3.74906 22.5022 3.19951 22.097 2.79432C21.6918 2.38913 21.1422 2.1615 20.5692 2.1615H5.48173C4.2931 2.1615 3.15316 2.63368 2.31267 3.47417C1.47218 4.31465 1 5.4546 1 6.64323V32.1759Z" fill="#735587" stroke="white" stroke-width="2"/>
</svg>
