<svg width="26" height="28" viewBox="0 0 26 28" fill="none" xmlns="http://www.w3.org/2000/svg">
<path fill-rule="evenodd" clip-rule="evenodd" d="M12.9995 3.80044e-07C11.3001 -0.000529984 9.64524 0.554059 8.27786 1.58237C6.91048 2.61068 5.90259 4.05855 5.40213 5.71347C4.90167 7.36839 4.93499 9.1432 5.4972 10.7774C6.05941 12.4116 7.1209 13.8192 8.52588 14.7934C6.08747 15.7048 3.97249 17.3388 2.45314 19.4853C0.933794 21.6318 0.0795982 24.1925 0.000488131 26.8378C-0.0081346 27.1307 0.097775 27.4151 0.294918 27.6284C0.49206 27.8417 0.764287 27.9665 1.05171 27.9753C1.33914 27.9841 1.61821 27.8761 1.82755 27.6753C2.03689 27.4744 2.15934 27.197 2.16796 26.9041C2.25401 24.035 3.43298 21.3128 5.45504 19.3144C7.4771 17.3159 10.1833 16.1983 13.0003 16.1983C15.8172 16.1983 18.5234 17.3159 20.5455 19.3144C22.5675 21.3128 23.7465 24.035 23.8326 26.9041C23.8337 27.0511 23.8636 27.1965 23.9205 27.3316C23.9775 27.4667 24.0603 27.5888 24.1642 27.6908C24.2681 27.7929 24.391 27.8727 24.5256 27.9258C24.6602 27.9788 24.8038 28.0038 24.9481 27.9995C25.0923 27.9952 25.2342 27.9616 25.3656 27.9006C25.4969 27.8397 25.6149 27.7526 25.7128 27.6445C25.8106 27.5365 25.8863 27.4096 25.9354 27.2713C25.9845 27.133 26.006 26.9861 25.9986 26.8393C25.9198 24.1937 25.0657 21.6327 23.5463 19.4859C22.027 17.3391 19.9118 15.7048 17.4732 14.7934C18.8782 13.8192 19.9397 12.4116 20.5019 10.7774C21.0641 9.1432 21.0974 7.36839 20.5969 5.71347C20.0965 4.05855 19.0886 2.61068 17.7212 1.58237C16.3538 0.554059 14.699 -0.000529984 12.9995 3.80044e-07V3.80044e-07ZM7.21961 8.09832C7.21961 6.53628 7.82857 5.03821 8.91251 3.93368C9.99646 2.82915 11.4666 2.20863 12.9995 2.20863C14.5325 2.20863 16.0026 2.82915 17.0866 3.93368C18.1705 5.03821 18.7795 6.53628 18.7795 8.09832C18.7795 9.66036 18.1705 11.1584 17.0866 12.263C16.0026 13.3675 14.5325 13.988 12.9995 13.988C11.4666 13.988 9.99646 13.3675 8.91251 12.263C7.82857 11.1584 7.21961 9.66036 7.21961 8.09832V8.09832Z" fill="#735587"/>
</svg>
