<svg width="29" height="32" viewBox="0 0 29 32" fill="none" xmlns="http://www.w3.org/2000/svg">
<path fill-rule="evenodd" clip-rule="evenodd" d="M6.25 3H4.25C3.18913 3 2.17172 3.42143 1.42157 4.17157C0.671427 4.92172 0.25 5.93913 0.25 7V28C0.25 29.0609 0.671427 30.0783 1.42157 30.8284C2.17172 31.5786 3.18913 32 4.25 32H24.25C25.3109 32 26.3283 31.5786 27.0784 30.8284C27.8286 30.0783 28.25 29.0609 28.25 28V7C28.25 5.93913 27.8286 4.92172 27.0784 4.17157C26.3283 3.42143 25.3109 3 24.25 3H22.25V5H24.25C24.7804 5 25.2891 5.21071 25.6642 5.58579C26.0393 5.96086 26.25 6.46957 26.25 7V28C26.25 28.5304 26.0393 29.0391 25.6642 29.4142C25.2891 29.7893 24.7804 30 24.25 30H4.25C3.71957 30 3.21086 29.7893 2.83579 29.4142C2.46071 29.0391 2.25 28.5304 2.25 28V7C2.25 6.46957 2.46071 5.96086 2.83579 5.58579C3.21086 5.21071 3.71957 5 4.25 5H6.25V3Z" fill="#735587"/>
<path fill-rule="evenodd" clip-rule="evenodd" d="M17.25 2H11.25C10.9848 2 10.7304 2.10536 10.5429 2.29289C10.3554 2.48043 10.25 2.73478 10.25 3V5C10.25 5.26522 10.3554 5.51957 10.5429 5.70711C10.7304 5.89464 10.9848 6 11.25 6H17.25C17.5152 6 17.7696 5.89464 17.9571 5.70711C18.1446 5.51957 18.25 5.26522 18.25 5V3C18.25 2.73478 18.1446 2.48043 17.9571 2.29289C17.7696 2.10536 17.5152 2 17.25 2V2ZM11.25 0C10.4544 0 9.69129 0.316071 9.12868 0.87868C8.56607 1.44129 8.25 2.20435 8.25 3V5C8.25 5.79565 8.56607 6.55871 9.12868 7.12132C9.69129 7.68393 10.4544 8 11.25 8H17.25C18.0456 8 18.8087 7.68393 19.3713 7.12132C19.9339 6.55871 20.25 5.79565 20.25 5V3C20.25 2.20435 19.9339 1.44129 19.3713 0.87868C18.8087 0.316071 18.0456 0 17.25 0L11.25 0ZM19.958 14.292C20.0511 14.3849 20.125 14.4952 20.1754 14.6167C20.2258 14.7382 20.2518 14.8685 20.2518 15C20.2518 15.1315 20.2258 15.2618 20.1754 15.3833C20.125 15.5048 20.0511 15.6151 19.958 15.708L13.958 21.708C13.8651 21.8011 13.7548 21.875 13.6333 21.9254C13.5118 21.9758 13.3815 22.0018 13.25 22.0018C13.1185 22.0018 12.9882 21.9758 12.8667 21.9254C12.7452 21.875 12.6349 21.8011 12.542 21.708L9.542 18.708C9.44902 18.615 9.37527 18.5046 9.32495 18.3832C9.27463 18.2617 9.24874 18.1315 9.24874 18C9.24874 17.8685 9.27463 17.7383 9.32495 17.6168C9.37527 17.4954 9.44902 17.385 9.542 17.292C9.72977 17.1042 9.98445 16.9987 10.25 16.9987C10.3815 16.9987 10.5117 17.0246 10.6332 17.075C10.7546 17.1253 10.865 17.199 10.958 17.292L13.25 19.586L18.542 14.292C18.6349 14.1989 18.7452 14.125 18.8667 14.0746C18.9882 14.0242 19.1185 13.9982 19.25 13.9982C19.3815 13.9982 19.5118 14.0242 19.6333 14.0746C19.7548 14.125 19.8651 14.1989 19.958 14.292V14.292Z" fill="#735587"/>
</svg>
