<svg width="39" height="39" viewBox="0 0 39 39" fill="none" xmlns="http://www.w3.org/2000/svg">
<path d="M16 31C19.4082 31 22.545 29.873 25.0593 27.9699L33.7965 36.7071L34.5036 37.4142L35.2107 36.7071L36.7071 35.2107L37.4142 34.5036L36.7071 33.7965L27.9699 25.0593C29.873 22.545 31 19.4082 31 16C31 7.69387 24.3061 1 16 1C7.69387 1 1 7.69387 1 16C1 24.3061 7.69387 31 16 31ZM5.15385 16C5.15385 9.98305 9.98305 5.15385 16 5.15385C22.0169 5.15385 26.8462 9.98305 26.8462 16C26.8462 22.0169 22.0169 26.8462 16 26.8462C9.98305 26.8462 5.15385 22.0169 5.15385 16Z" fill="#735587" stroke="white" stroke-width="2"/>
</svg>
