<svg width="14" height="14" viewBox="0 0 14 14" fill="none" xmlns="http://www.w3.org/2000/svg">
<path d="M14 12.9062V1.09375C14 0.791667 13.8932 0.533854 13.6797 0.320312C13.4661 0.106771 13.2083 0 12.9062 0H1.09375C0.791667 0 0.533854 0.106771 0.320312 0.320312C0.106771 0.533854 0 0.791667 0 1.09375V12.9062C0 13.2083 0.106771 13.4661 0.320312 13.6797C0.533854 13.8932 0.791667 14 1.09375 14H12.9062C13.2083 14 13.4661 13.8932 13.6797 13.6797C13.8932 13.4661 14 13.2083 14 12.9062ZM7 1.96875C8.03125 1.96875 8.98307 2.16927 9.85547 2.57031C10.7279 2.97135 11.418 3.51562 11.9258 4.20312C12.4336 4.89062 12.6875 5.64062 12.6875 6.45312C12.6875 7.26562 12.4336 8.01562 11.9258 8.70312C11.418 9.39062 10.7279 9.9349 9.85547 10.3359C8.98307 10.737 8.03125 10.9375 7 10.9375C6.65625 10.9375 6.32031 10.9141 5.99219 10.8672C5.63802 11.1224 5.16797 11.4479 4.58203 11.8438C3.99609 12.2396 3.66406 12.4427 3.58594 12.4531C3.53906 12.474 3.49479 12.4714 3.45312 12.4453C3.43229 12.4349 3.41797 12.418 3.41016 12.3945C3.40234 12.3711 3.39844 12.3516 3.39844 12.3359V12.3125C3.40365 12.2865 3.59635 11.599 3.97656 10.25C3.16406 9.84896 2.51693 9.3125 2.03516 8.64062C1.55339 7.96875 1.3125 7.23958 1.3125 6.45312C1.3125 5.64062 1.56641 4.89062 2.07422 4.20312C2.58203 3.51562 3.27214 2.97135 4.14453 2.57031C5.01693 2.16927 5.96875 1.96875 7 1.96875ZM4.11719 7.64062V5.6875H4.61719C4.6901 5.6875 4.76302 5.66406 4.83594 5.61719C4.90885 5.57031 4.94531 5.5026 4.94531 5.41406C4.94531 5.33073 4.91146 5.26042 4.84375 5.20312C4.77604 5.14583 4.71094 5.11719 4.64844 5.11719H2.99219C2.79427 5.11719 2.69531 5.20833 2.69531 5.39062C2.69531 5.48958 2.72917 5.5638 2.79688 5.61328C2.86458 5.66276 2.9401 5.6875 3.02344 5.6875H3.52344V7.64062C3.52344 7.74479 3.54948 7.83073 3.60156 7.89844C3.65365 7.96615 3.72656 8 3.82031 8C3.90885 8 3.98047 7.96224 4.03516 7.88672C4.08984 7.8112 4.11719 7.72917 4.11719 7.64062ZM6.86719 8C7.03385 7.93229 7.08073 7.78125 7.00781 7.54688C6.9974 7.49479 6.88281 7.16797 6.66406 6.56641C6.44531 5.96484 6.3151 5.61979 6.27344 5.53125C6.15885 5.25521 6 5.11719 5.79688 5.11719C5.58333 5.11719 5.41667 5.25521 5.29688 5.53125C5.26562 5.60417 5.13802 5.95312 4.91406 6.57812C4.6901 7.20312 4.57292 7.52604 4.5625 7.54688C4.53646 7.58333 4.53125 7.65234 4.54688 7.75391C4.5625 7.85547 4.60677 7.92708 4.67969 7.96875C4.76302 8.00521 4.84505 8.00911 4.92578 7.98047C5.00651 7.95182 5.0625 7.90625 5.09375 7.84375L5.24219 7.42969H6.35156C6.39844 7.58073 6.43229 7.67969 6.45312 7.72656C6.5625 7.96615 6.70052 8.05729 6.86719 8ZM8.57812 8C8.66667 8 8.7474 7.97266 8.82031 7.91797C8.89323 7.86328 8.92969 7.78906 8.92969 7.69531C8.92969 7.60156 8.89714 7.52865 8.83203 7.47656C8.76693 7.42448 8.68229 7.39844 8.57812 7.39844H7.86719V5.47656C7.86719 5.38802 7.84115 5.30599 7.78906 5.23047C7.73698 5.15495 7.66406 5.11719 7.57031 5.11719C7.47656 5.11719 7.40495 5.15104 7.35547 5.21875C7.30599 5.28646 7.28125 5.3724 7.28125 5.47656V7.64062C7.28125 7.74479 7.30599 7.83073 7.35547 7.89844C7.40495 7.96615 7.47656 8 7.57031 8C7.57552 8 7.58333 7.9987 7.59375 7.99609C7.60417 7.99349 7.61198 7.99219 7.61719 7.99219C7.6224 7.99219 7.63021 7.99349 7.64062 7.99609C7.65104 7.9987 7.65885 8 7.66406 8H8.57812ZM11.0781 7.96094C11.151 7.89323 11.1862 7.8151 11.1836 7.72656C11.181 7.63802 11.1536 7.5599 11.1016 7.49219C11.0964 7.48698 11.0547 7.43229 10.9766 7.32812C10.8984 7.22396 10.7917 7.08073 10.6562 6.89844C10.5208 6.71615 10.4036 6.55729 10.3047 6.42188C10.7943 5.92188 11.0417 5.66927 11.0469 5.66406C11.1094 5.60156 11.1471 5.52865 11.1602 5.44531C11.1732 5.36198 11.1484 5.28125 11.0859 5.20312C10.9505 5.05729 10.7969 5.07031 10.625 5.24219C10.6198 5.2474 10.5651 5.30339 10.4609 5.41016C10.3568 5.51693 10.2292 5.64714 10.0781 5.80078C9.92708 5.95443 9.79167 6.09115 9.67188 6.21094V5.47656C9.67188 5.38802 9.64453 5.30599 9.58984 5.23047C9.53516 5.15495 9.46354 5.11719 9.375 5.11719C9.28125 5.11719 9.20833 5.15104 9.15625 5.21875C9.10417 5.28646 9.07812 5.3724 9.07812 5.47656V7.64062C9.07812 7.74479 9.10417 7.83073 9.15625 7.89844C9.20833 7.96615 9.28125 8 9.375 8C9.46354 8 9.53516 7.96224 9.58984 7.88672C9.64453 7.8112 9.67188 7.72917 9.67188 7.64062V7.0625L9.77344 6.96094L9.88281 6.84375C10.3464 7.46875 10.5938 7.80469 10.625 7.85156C10.6875 7.9349 10.7578 7.98698 10.8359 8.00781C10.9141 8.02865 10.9948 8.01302 11.0781 7.96094ZM5.41406 6.85938L5.79688 5.71875L6.1875 6.85938H5.41406Z" fill="white"/>
</svg>
