<svg width="14" height="14" viewBox="0 0 14 14" fill="none" xmlns="http://www.w3.org/2000/svg">
<path d="M0.5 0C0.369792 0 0.253906 0.0494792 0.152344 0.148438C0.0507812 0.247396 0 0.364583 0 0.5V13.5C0 13.6354 0.0507812 13.7526 0.152344 13.8516C0.253906 13.9505 0.369792 14 0.5 14H13.5C13.6302 14 13.7461 13.9505 13.8477 13.8516C13.9492 13.7526 14 13.6354 14 13.5V0.5C14 0.364583 13.9492 0.247396 13.8477 0.148438C13.7461 0.0494792 13.6302 0 13.5 0H0.5ZM3.13281 3.5H5.82812L8.17188 7V3.5H10.8672V10.5H8.17188L5.82812 7V10.5H3.13281V3.5Z" fill="white"/>
</svg>
