<svg width="8" height="6" viewBox="0 0 8 6" fill="none" xmlns="http://www.w3.org/2000/svg">
<path d="M0.300002 2.69692C0.220437 2.69692 0.14413 2.72852 0.0878687 2.78478C0.0316073 2.84105 0 2.91735 0 2.99692C0 3.07648 0.0316073 3.15279 0.0878687 3.20905C0.14413 3.26531 0.220437 3.29692 0.300002 3.29692H6.11825L3.69963 5.47374C3.66961 5.49986 3.64509 5.53169 3.6275 5.56737C3.6099 5.60306 3.59958 5.64189 3.59714 5.6816C3.59469 5.72131 3.60017 5.76111 3.61325 5.79869C3.62633 5.83627 3.64676 5.87086 3.67334 5.90047C3.69992 5.93007 3.73213 5.9541 3.76808 5.97114C3.80404 5.98818 3.84302 5.9979 3.88277 5.99973C3.92251 6.00156 3.96223 5.99546 3.99959 5.9818C4.03696 5.96814 4.07124 5.94718 4.10043 5.92014L7.10045 3.22012C7.13178 3.19198 7.15683 3.15757 7.17399 3.11911C7.19114 3.08066 7.2 3.03902 7.2 2.99692C7.2 2.95481 7.19114 2.91318 7.17399 2.87472C7.15683 2.83627 7.13178 2.80185 7.10045 2.77372L4.10043 0.0736961C4.04102 0.021992 3.96365 -0.00427421 3.88504 0.000567988C3.80643 0.00541018 3.73288 0.0409724 3.68026 0.0995773C3.62764 0.158182 3.60018 0.235129 3.6038 0.313806C3.60743 0.392483 3.64185 0.466579 3.69963 0.520099L6.11825 2.69692H0.300002Z" fill="black"/>
</svg>
