<svg width="14" height="17" viewBox="0 0 14 17" fill="none" xmlns="http://www.w3.org/2000/svg">
<path d="M1.58957 15.9335L1.58632 15.9356C1.32449 16.1031 1 15.9157 1 15.6228V1.37525H2.77653e-06L1 1.37324C0.999867 1.30687 1.0177 1.24149 1.05189 1.18396C1.08609 1.1264 1.13553 1.07867 1.19531 1.04617C1.25513 1.01366 1.3229 0.997711 1.39142 1.00027C1.45994 1.00282 1.52625 1.02376 1.58336 1.06057L1.58334 1.06059L1.59031 1.065L12.8232 8.17503L12.8245 8.1759C12.8788 8.2101 12.9231 8.25717 12.9536 8.31244C12.9841 8.36769 13 8.4295 13 8.49216C13 8.55482 12.9841 8.61663 12.9536 8.67188C12.9231 8.72715 12.8788 8.77422 12.8245 8.80842L12.8224 8.80975L1.58957 15.9335L1.58957 15.9335Z" fill="#735587" stroke="white" stroke-width="2"/>
</svg>
