<svg width="14" height="38" viewBox="0 0 14 38" fill="none" xmlns="http://www.w3.org/2000/svg">
<path d="M5.27271 2.28963L5.27309 2.29044L12.7695 17.9778C12.9217 18.2957 13 18.644 13 18.9954C13 19.3466 12.9219 19.6947 12.7699 20.0123L5.27271 2.28963ZM5.27271 2.28963C5.01323 1.7479 4.55154 1.32224 3.97628 1.1222C3.39938 0.921588 2.7694 0.969907 2.2297 1.25287L2.69374 2.13795L2.22964 1.2529C1.69187 1.53489 1.29648 2.02115 1.11507 2.59228C0.933992 3.16239 0.975964 3.78393 1.23461 4.32438C1.2347 4.32455 1.23478 4.32473 1.23487 4.32491L8.24294 18.9954L1.23602 33.6636C1.10606 33.9312 1.02853 34.2211 1.00652 34.5171C0.984392 34.8146 1.01868 35.1143 1.10805 35.3993C1.19742 35.6844 1.34065 35.9508 1.53155 36.1824C1.72252 36.4142 1.95778 36.6068 2.22532 36.7471C2.49298 36.8874 2.78662 36.972 3.08912 36.9941C3.39165 37.0163 3.69474 36.9755 3.98034 36.8749C4.26582 36.7743 4.52654 36.6166 4.74841 36.4133C4.96926 36.2109 5.14727 35.9673 5.27437 35.6978C5.2749 35.6967 5.27542 35.6956 5.27595 35.6944L12.7695 20.0131L5.27271 2.28963Z" fill="#735587" stroke="white" stroke-width="2"/>
</svg>
