<svg width="14" height="38" viewBox="0 0 14 38" fill="none" xmlns="http://www.w3.org/2000/svg">
<path d="M8.72729 35.7104L8.72691 35.7096L1.2305 20.0222C1.07827 19.7043 1 19.356 1 19.0046C1 18.6534 1.07814 18.3053 1.23013 17.9877L8.72729 35.7104ZM8.72729 35.7104C8.98677 36.2521 9.44846 36.6778 10.0237 36.8778C10.6006 37.0784 11.2306 37.0301 11.7703 36.7471L11.3063 35.8621L11.7704 36.7471C12.3081 36.4651 12.7035 35.9789 12.8849 35.4077C13.066 34.8376 13.024 34.2161 12.7654 33.6756C12.7653 33.6754 12.7652 33.6753 12.7651 33.6751L5.75706 19.0046L12.764 4.33643C12.8939 4.06882 12.9715 3.77886 12.9935 3.48292C13.0156 3.18538 12.9813 2.88572 12.892 2.60068C12.8026 2.31561 12.6593 2.04919 12.4685 1.81757C12.2775 1.58585 12.0422 1.39318 11.7747 1.2529C11.507 1.11256 11.2134 1.02803 10.9109 1.00587C10.6084 0.983704 10.3053 1.02453 10.0197 1.12513C9.73418 1.22569 9.47346 1.38337 9.25159 1.58672C9.03074 1.78914 8.85273 2.03274 8.72563 2.30221C8.7251 2.30333 8.72458 2.30445 8.72405 2.30556L1.2305 17.9869L8.72729 35.7104Z" fill="#735587" stroke="white" stroke-width="2"/>
</svg>
